<?xml version="1.0" encoding="utf-8"?>
<!-- Generator: Adobe Illustrator 24.0.1, SVG Export Plug-In . SVG Version: 6.00 Build 0)  -->
<svg version="1.1" id="Layer_1" xmlns="http://www.w3.org/2000/svg" xmlns:xlink="http://www.w3.org/1999/xlink" x="0px" y="0px"
	 viewBox="0 0 638 397" style="enable-background:new 0 0 638 397;" xml:space="preserve">
<style type="text/css">
	.st0{font-family:'Rancho-Regular';}
	.st1{font-size:112.5848px;}
</style>
<g>
	<g>
		<path d="M304.55,202.83c-17.45-3.05-34.06,0.69-50.24,7.14c-15.89,6.34-29.23,16.69-42.7,26.86
			c-9.03,6.83-17.47,14.63-28.47,18.35c-10.49,3.55-20.07,1.97-27.83-6.31c-3.54-3.78-6.62-8.02-9.63-12.26
			c-4.79-6.74-8.85-14.08-14.12-20.41c-9.58-11.49-22.39-15.43-37.07-13.58c-4.03,0.51-6.9,2.52-7.62,6.78
			c-0.65,3.88,1.6,5.98,4.47,8.26c6.45,5.15,12.88,10.45,18.61,16.36c9.36,9.66,13.81,21.57,13.77,35.06
			c-0.02,5.52-0.21,11.05-0.4,16.57c-0.39,11.72,0.11,23.34,4.21,34.48c1.2,3.25,1.99,6.92,6.01,9.83c0.3-2.36,0.84-3.82,0.58-5.11
			c-3.17-16.17-1.25-32.41-1.01-48.64c0.11-7.56-0.22-15.37-1.99-22.67c-4.09-16.83-14.34-29.59-28.75-39.07
			c-2.08-1.37-4.07-2.88-6.1-4.33c0.27-0.7,0.54-1.39,0.81-2.09c3.83,0.37,7.77,0.31,11.47,1.21c8.13,1.98,14.1,7.24,18.76,13.98
			c4.88,7.07,9.45,14.35,14.31,21.43c5.81,8.47,13.73,13.58,23.92,15.78c13.87,2.99,26.21-0.76,37.68-7.89
			c8.84-5.5,17.2-11.79,25.6-17.97c11.16-8.21,22.62-15.85,35.49-21.15c9.71-3.99,19.71-6.88,30.32-6.66
			c3.78,0.08,7.78,0.22,10.24,4.24c-8.35,2.72-16.41,4.69-23.93,7.92c-18.86,8.1-35.27,20.19-49.06,35.12
			c-14.33,15.52-27.54,32.13-40.52,48.83c-9.39,12.08-17.68,25.03-26.29,37.72c-1.58,2.34-2.33,5.24-3.47,7.88
			c0.54,0.3,1.07,0.61,1.61,0.91c1.39-1.37,2.96-2.6,4.13-4.14c8.17-10.74,16.1-21.67,24.41-32.3
			c20.46-26.16,42.28-51.05,68.74-71.44c14.23-10.96,29.39-20.08,47.73-22.36c1.2-0.15,2.42-0.45,3.54-0.92
			c5.25-2.19,6.65-7.06,2.47-10.88C311.69,205.06,307.97,203.42,304.55,202.83z"/>
		<path d="M29.16,170.55c1.16-3.01,2.4-6,3.47-9.04c10.81-30.75,28.93-56.21,56.25-74.2c52.12-34.31,107.98-39.33,166.11-18.2
			c24.26,8.82,44.93,23.57,61.59,43.72c11.91,14.4,20.53,30.44,26.49,48.05c1.11,3.28,2.48,6.48,3.73,9.71
			c0.7-0.14,1.41-0.29,2.11-0.43c0.11-1.86,0.64-3.8,0.26-5.56c-9.02-41.92-31.65-74.55-69.23-95.13
			c-58.53-32.04-118.68-32.76-178.11-2.86c-40.34,20.3-65.29,53.8-74.8,98.29c-0.35,1.62-0.04,3.37-0.04,5.06
			C27.72,170.16,28.44,170.36,29.16,170.55z"/>
		<path d="M363.35,178.73c-2.58,0-5.18-0.15-7.75,0.02c-19.86,1.35-39.7,2.92-59.57,4.11c-29.04,1.74-58.09,4.03-87.16,4.6
			c-30.94,0.6-61.91-0.34-92.86-0.98c-16.23-0.34-32.45-1.29-48.66-2.33c-8.85-0.57-17.64-1.92-26.47-2.86
			c-9.01-0.96-18.02-1.86-28.96-2.98c5.42,6.88,11.53,8.07,17.24,9.59c28.01,7.47,56.83,9.18,85.53,10.68
			c26.89,1.41,53.9,0.77,80.85,0.94c38.04,0.24,75.98-1.83,113.76-6.19c14.56-1.68,28.99-4.7,43.39-7.56
			c3.91-0.78,7.49-3.23,11.22-4.91C363.72,180.14,363.54,179.43,363.35,178.73z"/>
		<path d="M115.84,303.52c-19.5,27.8-37.95,54.09-56.33,80.42c-0.37,0.52,0.06,1.59,0.21,3.97c18.08-19.12,32.56-39.73,50.34-58.59
			c1.57,3.51,2.48,5.75,3.54,7.91c6.82,13.9,14.85,26.89,28.17,35.61c2.3,1.5,4.62,4.08,8.98,1.81
			C130.07,355.62,121.93,330.78,115.84,303.52z"/>
		<path d="M175.26,254.78c2.76-0.97,5.77-1.52,8.23-2.98c6.04-3.6,11.93-7.49,17.7-11.52c12.3-8.6,24.18-17.84,36.84-25.87
			c7.28-4.62,15.75-7.39,23.86-11.07c-1.04-0.14-1.95-0.43-2.82-0.35c-18.89,1.78-35.36,8.89-49.74,21.45
			c-11.26,9.83-20.89,21.69-34.77,28.38C174.79,253.47,175.02,254.12,175.26,254.78z"/>
		<path d="M206,215.17c-11.94,10.41-22.82,22.04-34.14,33.17c-0.72,0.71-1.29,1.56-1.92,2.35c2.07,0.33,3.45-0.13,4.51-0.99
			c7.33-5.97,15.12-11.5,21.77-18.16c12.5-12.53,26.13-22.91,43.51-27.99C227.04,203.22,215.36,207.01,206,215.17z"/>
		<path d="M210.06,44.83c-4.21-11.8-13.51-17.66-23.89-16.5c-11.34,1.27-18.18,6.87-18.92,16.23
			C181.07,33.84,194.88,33.6,210.06,44.83z"/>
		<path d="M197.46,25.68c-0.84-4.48-1.32-7.99-2.2-11.4c-0.85-3.29-3.21-5.05-6.68-5.17c-3.42-0.11-6.12,1.46-7.3,4.48
			c-1.48,3.79-3.62,7.75-1.21,12.09C185.47,25.68,190.59,25.68,197.46,25.68z"/>
	</g>
	<text transform="matrix(0.9731 -0.2305 0.2305 0.9731 399.1021 214.6098)" class="st0 st1">Lorem</text>
	<text transform="matrix(0.9731 -0.2305 0.2305 0.9731 338.4041 326.1408)" class="st0 st1">Catering</text>
</g>
</svg>
