<?xml version="1.0" encoding="utf-8"?>
<!-- Generator: Adobe Illustrator 24.0.1, SVG Export Plug-In . SVG Version: 6.00 Build 0)  -->
<svg version="1.1" id="Layer_1" xmlns="http://www.w3.org/2000/svg" xmlns:xlink="http://www.w3.org/1999/xlink" x="0px" y="0px"
	 viewBox="0 0 486 317" style="enable-background:new 0 0 486 317;" xml:space="preserve">
<g>
	<path d="M123.89,143.96c2.18-0.17,3.97-0.01,5.38,0.48c-0.16-0.66-0.33-1.62-0.5-2.86c-0.18-1.25-0.42-3-0.72-5.27
		c-0.36-2.02-1.07-3.76-2.11-5.2c-1.04-1.45-2.58-2.49-4.6-3.12c-2.02-0.63-4.56-0.73-7.61-0.3c-3.06,0.44-6.72,1.51-10.99,3.22
		c-4.47,1.88-8.44,3.61-11.93,5.19c-3.48,1.59-6.49,2.97-9.02,4.15c-0.66-2.77-1.26-5.58-1.82-8.43c-0.56-2.85-1.15-6.1-1.78-9.75
		c-0.63-3.65-1.38-7.92-2.24-12.8c-0.87-4.88-1.92-10.69-3.16-17.41c-1.05-6.42-2.17-13.11-3.35-20.08
		c-1.06-5.95-2.28-12.47-3.67-19.57c-1.39-7.1-2.8-14.16-4.23-21.19c-0.49-0.59-1.11-0.99-1.87-1.22c-0.76-0.23-1.55-0.36-2.38-0.4
		c-0.94-0.01-1.86,0.03-2.78,0.13c-1.13,0.15-2.33,0.55-3.58,1.2c-1.17,0.51-2.51,1.24-4.04,2.19c-1.53,0.95-3.2,2.28-5.02,3.99
		c0.76,1.22,1.72,3.69,2.89,7.39c1.17,3.7,2.42,8.14,3.77,13.32c1.34,5.18,2.73,10.79,4.16,16.82c1.43,6.04,2.78,12,4.06,17.9
		c1.28,5.9,2.42,11.47,3.44,16.73c1.01,5.26,1.76,9.64,2.24,13.15c0.88,4.7,1.63,9.09,2.24,13.15c0.59,3.49,1.09,6.96,1.51,10.43
		c0.41,3.47,0.57,5.98,0.47,7.52c0.99,0.23,2.17,0.54,3.55,0.91c2.28,0.74,5.17,1.81,8.65,3.21c4-1.88,7.88-3.51,11.65-4.87
		c3.77-1.36,7.07-2.49,9.9-3.4c3.35-1.14,6.46-2.12,9.31-2.91c2.63-0.74,5.19-1.29,7.68-1.64
		C119.54,144.34,121.71,144.12,123.89,143.96z"/>
	<path d="M122.74,112.04c2.04,3.9,4.46,7.1,7.27,9.59c2.81,2.49,5.83,4.23,9.04,5.22s6.42,1.05,9.6,0.18
		c3.63-0.98,6.78-2.6,9.46-4.87c2.68-2.27,4.8-5.03,6.38-8.27c1.57-3.24,2.56-6.83,2.97-10.79c0.41-3.96,0.21-8.12-0.59-12.49
		c-1.19-6.5-2.99-11.89-5.41-16.17c-2.42-4.28-4.88-7.64-7.39-10.09c-2.51-2.45-4.89-4.11-7.14-4.97c-2.25-0.87-3.75-1.16-4.5-0.86
		c-1.08,0.37-2.12,0.91-3.13,1.62c-0.81,0.54-1.56,1.31-2.26,2.29c-0.7,0.99-1.19,2.15-1.45,3.5c-0.61-2.07-1.23-3.45-1.85-4.12
		c-0.33-0.39-0.61-0.61-0.86-0.67c-0.83-0.04-1.59-0.06-2.3-0.07c-0.7-0.01-1.41,0.25-2.1,0.76c-0.39,0.33-1.29,1.33-2.71,3.01
		c-1.42,1.68-2.8,4.08-4.17,7.21c-1.36,3.13-2.45,6.93-3.27,11.39c-0.81,4.46-0.72,9.55,0.29,15.28
		C119.33,103.7,120.7,108.14,122.74,112.04z M130.85,80.38c0.23-2.74,0.89-5.24,2-7.49c0.3,2.27,0.63,4.03,0.99,5.29
		c0.36,1.26,0.68,2.27,0.98,3.01c0.32,0.86,0.57,1.45,0.76,1.75c0.48-2.92,1.15-5.24,2.03-6.97c0.88-1.73,1.73-3.04,2.57-3.94
		c1.03-1.06,2.02-1.82,2.97-2.28c0.88-0.21,1.93,0.28,3.15,1.45c1.21,1.18,2.39,2.83,3.54,4.95c1.15,2.13,2.18,4.51,3.1,7.16
		c0.92,2.65,1.64,5.31,2.16,8c0.41,2.71,0.61,5.53,0.6,8.45c-0.01,2.93-0.31,5.63-0.89,8.11c-0.58,2.48-1.42,4.61-2.52,6.39
		c-1.1,1.78-2.58,2.95-4.43,3.51c-1.86,0.56-3.61,0.33-5.25-0.69s-3.2-2.51-4.66-4.51c-1.47-1.99-2.73-4.38-3.8-7.17
		c-1.07-2.79-1.9-5.69-2.5-8.71c-0.43-2.82-0.76-5.67-0.97-8.54C130.56,85.72,130.62,83.13,130.85,80.38z"/>
	<path d="M172.47,66.14c0.63,2.66,1.41,6.45,2.34,11.38c0.38,2.6,0.87,5.41,1.47,8.42c0.6,3.02,1.23,6.05,1.89,9.11
		c0.67,3.06,1.39,6.11,2.16,9.14c0.78,3.03,1.56,5.74,2.36,8.12c0.71,2.52,1.8,4.02,3.26,4.49c1.46,0.47,2.96,0.41,4.52-0.19
		c1.55-0.6,2.98-1.47,4.3-2.6c1.31-1.13,2.23-2.05,2.77-2.76c-0.79-0.87-1.53-2.15-2.23-3.86c-0.7-1.71-1.3-3.38-1.8-5.01
		c-0.7-1.94-1.24-3.98-1.62-6.11c-0.71-2.99-1.11-6.43-1.22-10.32c-0.1-3.89,0.12-7.63,0.68-11.21c0.56-3.58,1.48-6.72,2.77-9.43
		c1.29-2.7,2.93-4.29,4.92-4.76c1.36-0.2,2.59,0.09,3.72,0.88c0.98,0.71,1.87,1.96,2.65,3.76c0.78,1.8,1.13,4.53,1.06,8.17
		c1.28-0.54,2.54-1.51,3.78-2.91c1.25-1.4,2.31-2.97,3.18-4.7c0.88-1.73,1.54-3.49,1.99-5.3c0.45-1.8,0.49-3.48,0.13-5.03
		c-0.16-0.66-0.59-1.73-1.29-3.2c-0.7-1.47-1.62-2.89-2.76-4.26c-1.14-1.37-2.5-2.51-4.06-3.42c-1.56-0.92-3.34-1.14-5.33-0.67
		c-2.55,0.6-4.71,1.85-6.48,3.73c-1.78,1.88-3.24,4.07-4.41,6.57c-1.16,2.5-2.09,5.12-2.79,7.85c-0.7,2.74-1.18,5.25-1.46,7.54
		c-0.48-3.98-1-7.8-1.58-11.47c-0.58-3.66-1.01-6.1-1.3-7.32c-0.18-0.77-1.04-0.92-2.56-0.45c-1.53,0.48-3.12,1.27-4.79,2.36
		c-1.67,1.1-3.15,2.24-4.45,3.42c-1.3,1.18-1.89,2-1.79,2.44C171.18,60.95,171.84,63.48,172.47,66.14z"/>
	<path d="M235.84,98.14c5.44,4.21,12.04,5.39,19.79,3.56c4.21-1,7.55-2.79,10.04-5.36c2.49-2.58,4.38-5.33,5.67-8.27
		c1.29-2.94,2.06-5.75,2.3-8.44c0.24-2.69,0.22-4.64-0.07-5.86c-0.31-1.33-0.89-1.89-1.72-1.7s-1.33,0.67-1.51,1.41
		c-0.15,0.85-0.49,2.13-1.02,3.84c-0.53,1.71-1.35,3.45-2.45,5.23c-1.1,1.78-2.54,3.47-4.33,5.06c-1.79,1.59-4.01,2.71-6.67,3.33
		c-3.88,0.92-7.33,0.42-10.35-1.49c-3.03-1.92-5.45-5.99-7.28-12.22c1.21,0.65,2.47,1.05,3.79,1.21c1.32,0.16,2.87,0.02,4.64-0.4
		c2.77-0.66,5.45-2.17,8.05-4.54c2.6-2.37,4.82-5.21,6.67-8.51c1.85-3.3,3.13-6.88,3.86-10.74c0.72-3.85,0.67-7.55-0.17-11.1
		c-1.29-5.42-3.72-9.26-7.29-11.52c-3.58-2.25-7.41-2.89-11.51-1.92c-4.21,1-7.97,3.03-11.28,6.09c-3.31,3.06-5.96,6.82-7.94,11.27
		c-1.99,4.45-3.23,9.45-3.73,15c-0.5,5.56-0.05,11.27,1.34,17.14C226.68,87.63,230.39,93.94,235.84,98.14z M237.31,58.06
		c0.84-4.12,1.96-7.75,3.39-10.89c1.42-3.14,2.88-5.62,4.38-7.44c1.5-1.82,2.58-2.8,3.25-2.96c0.55-0.13,1.35,0.29,2.41,1.27
		c1.05,0.98,1.96,3.08,2.72,6.29c1.52,6.42,0.74,11.75-2.35,15.99c-3.09,4.24-7.77,7.92-14.05,11.05
		C236.38,66.62,236.47,62.18,237.31,58.06z"/>
	<path d="M277.36,38.66c0.53,1.28,1.1,2.66,1.69,4.16c0.63,2.19,1.46,5.42,2.47,9.68c1.01,4.26,1.98,8.63,2.92,13.08
		c0.94,4.46,1.76,8.44,2.48,11.96c0.71,3.51,1.15,5.6,1.31,6.27c0.13,0.55,0.32,1.21,0.56,1.97c0.24,0.76,0.54,1.54,0.9,2.33
		c0.36,0.79,0.81,1.45,1.34,1.96c0.53,0.52,1.21,0.8,2.04,0.83c1.3,0.04,2.6-0.15,3.9-0.57c1.3-0.43,2.59-0.91,3.87-1.44
		c1.14-0.62,1.79-1.45,1.96-2.48c0.16-1.03,0.17-2.35,0.03-3.95c-0.1-0.44-0.13-0.79-0.07-1.04c-0.05-0.22-0.11-0.47-0.18-0.75
		c-0.06-0.28-0.08-0.59-0.05-0.95c-0.51-3.62-0.45-8.08,0.17-13.37c0.62-5.29,1.31-10.49,2.1-15.58c0.3-2.18,0.72-4.35,1.26-6.53
		c0.54-2.17,1.12-4.18,1.73-6.03c0.62-1.84,1.34-3.36,2.17-4.55c0.83-1.19,1.68-1.89,2.57-2.1c1.11-0.26,2.1,0.09,2.97,1.05
		c0.87,0.96,1.63,2.33,2.29,4.11c0.65,1.78,1.27,3.77,1.85,5.96c0.58,2.2,1.12,4.36,1.62,6.46c0.77,2.74,1.54,5.63,2.31,8.66
		c0.78,3.03,1.52,5.93,2.23,8.68c0.71,2.76,1.33,5.24,1.85,7.46c0.53,2.22,0.92,3.88,1.18,4.98c0.37,1.55,1.29,2.5,2.78,2.85
		c1.49,0.35,3.04,0.36,4.66,0.04c1.62-0.33,3.03-0.89,4.25-1.71c1.21-0.81,1.68-1.54,1.41-2.18c-0.53-1.74-1.03-3.5-1.51-5.26
		c-0.48-1.76-0.96-3.69-1.46-5.79l0.52,1.46c-0.37-1.55-0.69-3.66-0.98-6.35c-0.28-2.68-0.46-5.65-0.53-8.91
		c-0.07-3.26-0.06-6.56,0.02-9.92c0.08-3.35,0.37-6.46,0.86-9.33c0.49-2.86,1.15-5.24,1.99-7.14c0.84-1.89,1.92-3,3.25-3.31
		c1.55-0.37,2.99,0.29,4.32,1.96c1.33,1.67,2.54,3.93,3.62,6.77c1.08,2.84,2.09,6,3.03,9.46c0.93,3.46,1.74,6.87,2.42,10.21
		c0.67,3.35,1.24,6.35,1.69,8.99c0.45,2.64,0.81,4.52,1.07,5.62c0.29,1.22,0.63,2.42,1.03,3.61c0.4,1.2,0.94,2.23,1.62,3.13
		c0.68,0.89,1.48,1.55,2.4,1.97c0.92,0.43,1.99,0.49,3.21,0.21c0.89-0.21,1.9-0.62,3.04-1.24c0.94-0.46,2.02-1.09,3.23-1.91
		c1.21-0.81,2.47-1.9,3.79-3.27c-2.75-1.22-4.72-3.65-5.93-7.28c-1.21-3.63-2.47-8.68-3.77-15.16c-0.42-2.24-0.97-4.83-1.66-7.76
		c-0.7-2.93-1.43-5.77-2.19-8.52c-0.77-2.74-1.54-5.25-2.31-7.52c-0.77-2.27-1.46-3.92-2.05-4.95c-0.57-0.92-1.68-1.77-3.32-2.55
		c-1.65-0.78-3.48-1.37-5.5-1.77c-2.02-0.4-4.02-0.54-5.98-0.43c-1.96,0.12-3.54,0.61-4.74,1.47c-0.89,0.68-1.8,1.77-2.73,3.28
		c-0.93,1.51-1.77,3.26-2.53,5.25c-0.76,1.99-1.45,4.12-2.09,6.37c-0.64,2.26-1.15,4.54-1.53,6.85c-0.57-2.9-1.19-5.51-1.85-7.81
		c-0.66-2.3-1.35-3.95-2.05-4.95c-0.68-0.89-1.72-1.7-3.12-2.42c-1.4-0.72-2.92-1.33-4.55-1.82c-1.64-0.49-3.32-0.79-5.04-0.91
		c-1.72-0.12-3.2-0.03-4.41,0.26c-1.77,0.42-3.41,1.89-4.92,4.41c-1.51,2.52-2.84,5.53-4,9.02c-1.16,3.49-2.16,7.18-2.99,11.06
		c-0.83,3.88-1.53,7.35-2.1,10.41c-1.32-7.05-2.31-12.58-2.96-16.58c-0.66-4-1.2-6.94-1.65-8.82c-0.5-2.1-1.52-3.09-3.07-2.96
		c-1.55,0.13-3.62,0.63-6.23,1.48c-0.97,0.35-2.03,0.83-3.17,1.45c-0.94,0.46-1.97,1.05-3.09,1.78c-1.11,0.73-2.2,1.57-3.26,2.53
		c0.76,0.76,1.43,1.71,1.99,2.86C276.31,36.34,276.85,37.5,277.36,38.66z"/>
	<path d="M103.06,254.73c-0.76-0.75-1.56-1.38-2.38-1.89c-0.8-0.39-1.73-0.76-2.8-1.09c-1.07-0.33-2.34-0.38-3.81-0.15
		c1.05,8.41,0.85,15.09-0.6,20.05c-1.46,4.97-3.33,8.77-5.63,11.42c-2.66,3.09-5.89,5.25-9.69,6.5c-1.99,0.47-4.55,0.4-7.68-0.2
		c-3.13-0.6-6.38-2.35-9.75-5.23c-3.38-2.88-6.69-7.24-9.94-13.08c-3.25-5.84-6.05-13.68-8.38-23.54
		c-2.36-9.96-3.38-18.82-3.04-26.56c0.33-7.74,1.49-14.33,3.47-19.77c1.98-5.44,4.45-9.74,7.39-12.89c2.94-3.15,5.9-5.08,8.89-5.79
		c1.33-0.31,2.78-0.37,4.35-0.15c1.57,0.21,3.13,0.75,4.68,1.61c1.55,0.86,2.93,2.12,4.14,3.76c1.21,1.64,2.1,3.69,2.68,6.12
		c0.8,4.37,0.92,8.32,0.35,11.85c-0.56,3.06-1.86,6-3.88,8.81c-2.02,2.82-5.4,4.61-10.13,5.38c1.83,1.32,3.69,2.23,5.56,2.72
		c1.87,0.49,3.63,0.78,5.29,0.85c1.87,0.02,3.66-0.11,5.35-0.39c4.98-1.18,8.91-4.21,11.79-9.11c2.88-4.89,3.83-10.61,2.86-17.17
		c-0.46-3.4-1.54-6.86-3.25-10.37c-1.71-3.51-4.07-6.55-7.07-9.11c-3-2.56-6.63-4.4-10.86-5.5c-4.24-1.1-9.13-1-14.66,0.32
		c-5.87,1.39-11.21,4.41-16.01,9.05c-4.81,4.65-8.66,10.59-11.57,17.83c-2.91,7.24-4.62,15.65-5.16,25.25
		c-0.53,9.6,0.55,20.1,3.25,31.51c1.89,7.97,4.56,15.18,8.01,21.61c3.45,6.44,7.47,11.8,12.06,16.09c4.58,4.29,9.66,7.33,15.23,9.11
		c5.57,1.78,11.34,1.96,17.32,0.54c5.42-1.29,9.79-3.34,13.1-6.17c3.3-2.83,5.85-6.04,7.63-9.62c1.78-3.58,2.96-7.25,3.53-11.01
		c0.57-3.76,0.83-7.21,0.79-10.36c-0.04-3.15-0.26-5.78-0.65-7.92C103.46,255.92,103.19,254.81,103.06,254.73z"/>
	<path d="M169.95,261.25c-0.73-0.35-1.32-0.77-1.79-1.24c-0.6-0.56-1.1-1.2-1.51-1.92c-0.41-0.72-0.94-2.61-1.61-5.67
		c-0.67-3.06-1.4-6.65-2.21-10.79c-0.8-4.13-1.64-8.53-2.51-13.18c-0.87-4.65-1.68-8.96-2.45-12.93c-0.76-3.97-1.46-7.26-2.07-9.86
		c-0.62-2.6-1.05-3.93-1.3-3.99c-0.36-0.03-1.03,0.1-2.01,0.39c-0.98,0.29-2.05,0.75-3.18,1.37c-1.14,0.62-2.15,1.3-3.03,2.03
		c-0.88,0.74-1.42,1.42-1.62,2.05c-0.04,0.83,0,2.46,0.1,4.89c0.14,2.07,0.47,5.06,0.99,8.98c0.52,3.91,1.29,9.26,2.31,16.03
		c-0.34,4.99-1,9.01-1.97,12.04c-0.98,3.04-2.03,5.39-3.15,7.06c-1.29,1.95-2.76,3.4-4.4,4.38c-2.86,1.26-5.54,0.44-8.04-2.48
		c-2.5-2.91-3.84-7.22-4.02-12.91c-0.25-4.5-0.01-8.42,0.73-11.75c0.73-3.33,1.82-6.28,3.26-8.84c1.44-2.56,3.15-4.87,5.12-6.91
		c1.97-2.04,4.14-3.99,6.51-5.84c-0.43-0.83-0.9-1.57-1.4-2.21c-0.5-0.64-0.92-1.15-1.24-1.55c-0.44-0.36-0.81-0.69-1.11-0.96
		c-0.87-0.73-1.77-1.04-2.68-0.95c-0.91,0.1-1.94,0.46-3.08,1.08c-0.42,0.22-1.3,0.81-2.65,1.77c-1.35,0.96-2.9,2.32-4.65,4.08
		c-1.75,1.76-3.5,3.87-5.25,6.33c-1.76,2.46-3.3,5.32-4.64,8.55c-1.34,3.24-2.31,6.8-2.91,10.69c-0.6,3.88-0.53,8.14,0.21,12.75
		c0.69,4.4,1.88,8.21,3.58,11.43c1.7,3.22,3.69,5.82,5.97,7.79c2.28,1.98,4.8,3.25,7.57,3.82c2.77,0.57,5.51,0.42,8.22-0.46
		c2.16-0.75,4.15-1.97,5.97-3.69c1.67-1.33,3.25-3.2,4.73-5.59c1.48-2.39,2.6-5.44,3.36-9.13c0.83,2.5,1.62,4.5,2.39,6.01
		c0.77,1.51,1.53,2.65,2.3,3.4c0.82,0.98,1.62,1.66,2.42,2.06c2.17,0.77,4.25,0.92,6.25,0.45c1.99-0.47,3.45-0.99,4.37-1.56
		c0.31-0.19,0.64-0.5,1.01-0.94c0.64-0.74,1.17-1.97,1.58-3.71C171.49,261.73,170.67,261.6,169.95,261.25z"/>
	<path d="M197.82,247.1c-1.57-3.9-2.94-8.34-4.12-13.32c-1.18-4.98-2.23-10.29-3.16-15.92c-0.92-5.63-1.74-11.17-2.44-16.61
		c-0.46-2.93-0.91-5.93-1.34-8.98c-0.43-3.06-0.93-6.04-1.5-8.94c4.54-1.08,8.87-2.19,12.98-3.34c4.11-1.15,7.58-1.94,10.4-2.38
		c2.77-0.65,5.38-1.21,7.85-1.68c2.13-0.39,4.24-0.71,6.35-0.98c2.1-0.26,3.79-0.43,5.06-0.5c-0.21-0.88-0.61-1.7-1.19-2.44
		c-0.59-0.74-1.23-1.38-1.94-1.91c-0.74-0.64-1.57-1.21-2.5-1.69c-2.69-1.47-5.02-2.43-7-2.9c-1.98-0.46-4.16-0.53-6.54-0.21
		c-2.38,0.33-5.33,1.06-8.87,2.19c-3.53,1.13-8.21,2.5-14.02,4.11c-0.53,0.24-1.35,0.5-2.45,0.76c-1.06-5.48-2.02-10.14-2.87-13.97
		c-0.85-3.83-1.39-6.25-1.63-7.25c-0.24-1-1.13-1.19-2.68-0.59c-1.55,0.6-3.18,1.52-4.88,2.73c-1.7,1.22-3.24,2.49-4.62,3.81
		c-1.38,1.32-2,2.32-1.84,2.98c0.5,1.63,0.99,3.42,1.44,5.36c0.46,1.94,0.93,3.67,1.41,5.19c0.47,1.99,0.97,3.86,1.5,5.61
		c-2.41,0.69-4.82,1.38-7.23,2.06c-2.08,0.61-4.36,1.21-6.85,1.8s-4.79,1.13-6.89,1.63c1.69,2.18,3.04,3.84,4.08,5
		c1.04,1.16,1.85,2.02,2.45,2.58c0.63,0.67,1.13,1.08,1.52,1.22c0.36,0.03,1.98-0.29,4.86-0.97c2.88-0.68,6.41-1.57,10.59-2.68
		c1.34,5.65,2.55,11.5,3.63,17.56c1.03,5.84,1.95,11.2,2.76,16.1c0.81,4.89,1.57,9.48,2.29,13.75c0.72,4.28,1.45,8.34,2.19,12.2
		c0.74,3.86,1.66,7.65,2.78,11.36c0.63,2.19,1.5,3.62,2.6,4.3c1.09,0.67,2.31,0.86,3.64,0.54c1.44-0.34,2.84-0.85,4.2-1.52
		c1.16-0.51,2.46-1.2,3.9-2.06c1.43-0.87,2.69-1.95,3.79-3.27C201.28,253.92,199.39,251,197.82,247.1z"/>
	<path d="M256.41,221.91c-0.83,0.2-1.33,0.67-1.51,1.41c-0.15,0.85-0.49,2.13-1.02,3.84c-0.53,1.71-1.35,3.45-2.45,5.23
		c-1.1,1.78-2.54,3.47-4.33,5.06c-1.79,1.59-4.01,2.71-6.67,3.33c-3.88,0.92-7.33,0.42-10.35-1.49c-3.03-1.92-5.45-5.99-7.28-12.22
		c1.21,0.65,2.47,1.05,3.79,1.21c1.32,0.16,2.87,0.02,4.64-0.4c2.77-0.65,5.45-2.17,8.05-4.54c2.6-2.37,4.82-5.2,6.67-8.51
		c1.85-3.3,3.13-6.88,3.86-10.74c0.72-3.85,0.67-7.55-0.17-11.1c-1.28-5.42-3.72-9.26-7.29-11.52c-3.58-2.25-7.41-2.89-11.51-1.92
		c-4.21,1-7.97,3.03-11.27,6.09c-3.31,3.06-5.96,6.82-7.94,11.27c-1.99,4.45-3.23,9.45-3.73,15c-0.5,5.56-0.05,11.27,1.34,17.14
		c1.99,8.42,5.71,14.73,11.15,18.94c5.44,4.21,12.04,5.39,19.79,3.56c4.21-1,7.56-2.79,10.04-5.36c2.49-2.58,4.38-5.33,5.67-8.27
		c1.29-2.94,2.06-5.75,2.3-8.44c0.24-2.69,0.22-4.64-0.07-5.86C257.82,222.28,257.24,221.71,256.41,221.91z M221.87,207.9
		c0.84-4.12,1.96-7.75,3.38-10.89c1.42-3.14,2.88-5.62,4.38-7.44c1.5-1.82,2.58-2.8,3.25-2.96c0.55-0.13,1.35,0.29,2.41,1.27
		c1.05,0.98,1.96,3.08,2.72,6.29c1.52,6.42,0.74,11.75-2.35,15.99c-3.09,4.24-7.77,7.92-14.05,11.04
		C220.94,216.46,221.03,212.02,221.87,207.9z"/>
	<path d="M304.29,177.06c-0.7-1.47-1.62-2.89-2.76-4.26c-1.14-1.37-2.5-2.51-4.06-3.42c-1.56-0.92-3.34-1.14-5.33-0.67
		c-2.55,0.6-4.71,1.85-6.48,3.73c-1.78,1.88-3.25,4.07-4.41,6.57c-1.16,2.5-2.09,5.12-2.79,7.86c-0.7,2.74-1.19,5.25-1.46,7.54
		c-0.48-3.98-1-7.8-1.58-11.47c-0.58-3.66-1.01-6.1-1.3-7.32c-0.18-0.77-1.04-0.92-2.56-0.45c-1.53,0.48-3.12,1.27-4.79,2.36
		c-1.67,1.1-3.15,2.24-4.45,3.42c-1.3,1.18-1.9,2-1.79,2.44c0.69,2.41,1.35,4.94,1.98,7.6s1.41,6.45,2.34,11.38
		c0.38,2.6,0.87,5.41,1.47,8.42c0.6,3.02,1.23,6.05,1.89,9.11c0.67,3.06,1.39,6.11,2.16,9.14c0.78,3.03,1.56,5.74,2.36,8.12
		c0.71,2.52,1.8,4.02,3.26,4.49c1.46,0.47,2.96,0.41,4.52-0.19c1.55-0.6,2.98-1.47,4.3-2.6s2.23-2.05,2.77-2.76
		c-0.79-0.87-1.54-2.15-2.23-3.86c-0.7-1.71-1.3-3.38-1.8-5.01c-0.7-1.94-1.24-3.98-1.62-6.11c-0.71-2.99-1.11-6.43-1.22-10.32
		c-0.1-3.89,0.12-7.63,0.68-11.21c0.56-3.58,1.48-6.72,2.77-9.43c1.29-2.7,2.93-4.29,4.92-4.76c1.36-0.2,2.59,0.09,3.72,0.88
		c0.98,0.71,1.87,1.96,2.65,3.76c0.78,1.8,1.13,4.53,1.06,8.17c1.28-0.54,2.54-1.51,3.78-2.91c1.25-1.4,2.31-2.97,3.18-4.7
		c0.88-1.73,1.54-3.49,1.99-5.3c0.45-1.8,0.49-3.48,0.13-5.03C305.42,179.6,304.99,178.54,304.29,177.06z"/>
	<path d="M315.15,156.25c1.33-0.31,2.68-1.01,4.06-2.1c1.38-1.09,2.53-2.38,3.46-3.89c0.93-1.51,1.63-3.13,2.09-4.88
		c0.46-1.75,0.5-3.45,0.1-5.11c-0.52-2.21-1.94-3.75-4.25-4.61c-2.31-0.86-4.57-1.02-6.78-0.5c-2.44,0.58-4.34,1.44-5.7,2.58
		c-1.37,1.14-2.36,2.4-2.97,3.77c-0.61,1.37-0.92,2.79-0.92,4.25c0,1.46,0.13,2.75,0.39,3.86c0.21,0.89,0.54,1.8,1,2.74
		c0.46,0.94,1.09,1.76,1.9,2.45c0.8,0.69,1.83,1.21,3.09,1.55C311.87,156.7,313.38,156.67,315.15,156.25z M311.88,147.99
		c0.33-0.84,0.81-1.65,1.44-2.44c0.63-0.79,1.31-1.51,2.03-2.15c0.73-0.64,1.36-1.02,1.92-1.16c0.89-0.21,1.43,0.13,1.64,1.02
		c0.13,0.55,0.04,1.28-0.27,2.17c-0.31,0.89-0.75,1.76-1.32,2.59c-0.56,0.83-1.2,1.6-1.91,2.29c-0.71,0.7-1.4,1.12-2.07,1.28
		c-0.89,0.21-1.46-0.24-1.72-1.35C311.47,149.58,311.55,148.83,311.88,147.99z"/>
	<path d="M333.23,207.4c-0.46-2.93-0.87-5.64-1.22-8.13c-0.44-2.35-0.89-5.25-1.36-8.71c-0.47-3.46-0.94-6.91-1.4-10.37
		c-0.47-3.46-0.95-6.73-1.45-9.83c-0.5-3.1-0.95-5.48-1.34-7.14c-0.21-0.88-1.22-1.08-3.04-0.6c-1.81,0.49-3.74,1.24-5.78,2.25
		c-2.04,1.01-3.86,2.11-5.44,3.31c-1.59,1.2-2.3,2.12-2.15,2.79c0.71,2.52,1.83,6.26,3.36,11.22c1.53,4.96,3.15,12.09,4.89,21.38
		c0.88,4.7,1.76,8.68,2.65,11.92c0.88,3.24,1.68,5.86,2.39,7.85c0.71,2,1.3,3.52,1.79,4.58c0.48,1.05,0.89,1.78,1.21,2.17
		c0.21,0.41,0.93,0.48,2.15,0.19c1.22-0.29,2.46-0.73,3.72-1.32c1.26-0.59,2.38-1.3,3.36-2.11c0.97-0.81,1.4-1.5,1.27-2.05
		c-0.85-3.07-1.57-6.12-2.16-9.14C334.06,212.64,333.58,209.89,333.23,207.4z"/>
	<path d="M402.31,207.61c-0.56-0.63-1.05-1.36-1.48-2.19c-0.65-0.78-1.22-1.7-1.7-2.75c-1.14-1.84-2.04-4.66-2.71-8.48
		c-0.67-3.81-1.31-7.87-1.92-12.18c-0.61-4.3-1.3-8.46-2.08-12.49c-0.78-4.03-1.79-7.18-3.03-9.46c-1.05-1.97-2.64-3.5-4.77-4.57
		c-2.13-1.08-4.23-1.81-6.31-2.19c-2.08-0.38-3.98-0.49-5.69-0.32c-1.71,0.17-2.71,0.41-2.99,0.71c-0.39,0.33-0.86,1.2-1.4,2.61
		c-0.54,1.42-1.1,3.01-1.67,4.78c-0.57,1.78-1.09,3.65-1.56,5.63c-0.47,1.98-0.81,3.76-1.02,5.33c-0.29,1.24-0.55,2.88-0.76,4.92
		c-0.3,1.71-0.62,3.95-0.95,6.72c-0.34,2.77-0.81,6.1-1.41,9.98c-1.12-8.16-2.04-14.52-2.77-19.08c-0.73-4.56-1.25-7.98-1.55-10.24
		c-0.38-2.6-0.71-4.22-0.98-4.86c-0.43-0.83-1.24-1.05-2.43-0.65c-1.19,0.4-2.87,1.21-5.04,2.42c-0.83,0.43-1.7,0.99-2.59,1.67
		c-0.81,0.54-1.68,1.19-2.61,1.94c-0.94,0.75-1.83,1.52-2.7,2.3c0.79,2.85,1.53,5.6,2.22,8.25c0.68,2.64,1.26,4.96,1.74,6.96
		l1.57,6.64c1.37,5.29,2.57,10.12,3.61,14.49c1.04,4.38,2,7.98,2.91,10.8c0.88,2.71,1.96,4.56,3.24,5.54
		c1.29,0.98,2.2,1.64,2.75,1.98c0.54,0.34,1.41,0.28,2.59-0.17c1.18-0.46,2.39-1.12,3.65-2.01c1.25-0.88,2.32-1.8,3.2-2.78
		c0.88-0.97,1.3-1.8,1.25-2.49c-0.49-3.04-0.74-6.84-0.77-11.39c-0.03-4.55,0.16-9.19,0.57-13.91c0.4-4.71,0.97-9.11,1.7-13.21
		c0.73-4.09,1.61-7.13,2.66-9.14c0.4-0.79,1.19-0.89,2.38-0.3c1.19,0.6,2.3,1.82,3.33,3.69c0.27,0.64,0.56,1.88,0.88,3.74
		c0.32,1.86,0.7,4.05,1.12,6.58c0.42,2.53,0.83,5.24,1.22,8.13c0.39,2.89,0.78,5.66,1.18,8.32c0.39,2.66,0.81,5.02,1.24,7.08
		c0.43,2.06,0.86,3.51,1.29,4.34c1.24,2.75,2.37,4.7,3.41,5.86c1.03,1.16,2.09,1.79,3.16,1.88c0.47,0.01,1.22-0.29,2.25-0.88
		c0.83-0.43,2.02-1.12,3.54-2.07c1.53-0.95,3.48-2.34,5.85-4.19C403.41,208.67,402.87,208.24,402.31,207.61z"/>
	<path d="M462.56,214.22c-0.09-4.83-0.58-9.6-1.46-14.3c-0.52-2.68-1.31-7-2.37-12.95c-0.96-5.04-2.28-12.09-3.96-21.17
		c-1.68-9.07-3.91-20.94-6.68-35.61c-0.44-0.36-1.03-0.52-1.78-0.46c-0.75,0.06-1.46,0.11-2.16,0.16l-2.49,0.59
		c-1,0.24-1.9,0.63-2.71,1.17c-0.83,0.43-1.61,0.97-2.34,1.61c-0.73,0.64-1.35,1.32-1.89,2.03l0.75,3.16
		c-1.51-0.93-3.28-1.65-5.33-2.16c-2.05-0.51-4.46-0.43-7.23,0.22c-2.66,0.63-5.45,1.93-8.37,3.91c-2.92,1.98-5.39,4.76-7.41,8.33
		c-2.02,3.58-3.4,8-4.14,13.26c-0.74,5.26-0.25,11.55,1.48,18.86c1.18,4.98,2.87,9.17,5.08,12.57c2.21,3.4,4.66,6.09,7.35,8.08
		c2.69,1.99,5.4,3.31,8.13,3.95c2.72,0.64,5.25,0.69,7.58,0.13c2.43-0.58,4.48-1.44,6.14-2.59c1.66-1.15,3.02-2.44,4.08-3.86
		c1.07-1.42,1.91-2.91,2.54-4.46c0.63-1.55,1.13-3.01,1.5-4.39l1.14,4.82c0.68,2.88,1.32,6.44,1.92,10.69
		c0.59,4.24,0.82,8.4,0.67,12.47c-0.15,4.07-0.9,7.7-2.25,10.88c-1.35,3.18-3.63,5.16-6.84,5.92c-2.99,0.71-5.5,0.01-7.51-2.08
		c-2.02-2.1-3.46-4.97-4.32-8.63c-0.43-1.3-0.69-2.64-0.78-4.03c-0.36-2.49-0.39-5.35-0.1-8.57c-2.16,0.74-4.03,1.77-5.59,3.08
		c-1.56,1.3-2.79,2.68-3.67,4.12c-0.89,1.44-1.51,2.78-1.85,4.03c-0.35,1.25-0.45,2.15-0.32,2.71c0.52,2.21,1.33,4.63,2.42,7.23
		c1.08,2.61,2.61,4.96,4.57,7.07c1.96,2.11,4.44,3.68,7.44,4.73c2.99,1.04,6.65,1.05,10.97,0.03c4.98-1.18,8.93-3.29,11.84-6.31
		c2.91-3.03,4.98-6.62,6.22-10.77C462.07,223.54,462.65,219.05,462.56,214.22z M443.73,178.07c-0.68-0.66-1.57-1.32-2.67-2
		c0.19,4.28-0.08,7.68-0.83,10.2c-0.75,2.52-1.61,4.42-2.6,5.7c-1.15,1.56-2.54,2.59-4.18,3.1c-2.22,0.52-4.13,0.34-5.75-0.57
		c-1.62-0.9-3.07-2.22-4.36-3.96c-1.29-1.74-2.35-3.74-3.18-6c-0.83-2.26-1.5-4.5-2.03-6.71c-0.81-3.43-1.24-6.96-1.28-10.57
		c-0.04-3.62,0.29-6.94,0.97-9.97c0.69-3.03,1.69-5.57,3.01-7.64c1.32-2.07,2.92-3.33,4.81-3.77c2.33-0.55,4.47-0.03,6.42,1.55
		c1.95,1.59,3.69,3.72,5.2,6.4c1.51,2.68,2.85,5.73,4.01,9.14c1.16,3.41,2.09,6.61,2.8,9.6c0.37,1.55,0.67,2.94,0.9,4.17
		c0.23,1.23,0.4,2.3,0.5,3.21C445,179.35,444.41,178.73,443.73,178.07z"/>
</g>
</svg>
