<?xml version="1.0" encoding="utf-8"?>
<!-- Generator: Adobe Illustrator 24.0.1, SVG Export Plug-In . SVG Version: 6.00 Build 0)  -->
<svg version="1.1" id="Layer_1" xmlns="http://www.w3.org/2000/svg" xmlns:xlink="http://www.w3.org/1999/xlink" x="0px" y="0px"
	 viewBox="0 0 380 222" style="enable-background:new 0 0 380 222;" xml:space="preserve">
<g>
	<path d="M31.24,177.24c1.16-3.01,2.4-6,3.47-9.04c10.81-30.75,28.93-56.21,56.25-74.2c52.12-34.31,107.98-39.33,166.11-18.2
		c24.26,8.82,44.93,23.57,61.59,43.72c11.91,14.4,20.53,30.44,26.49,48.05c1.11,3.28,2.48,6.48,3.73,9.71
		c0.7-0.14,1.41-0.29,2.11-0.43c0.11-1.86,0.64-3.8,0.26-5.56c-9.02-41.92-31.65-74.55-69.23-95.13
		C223.5,44.12,163.36,43.4,103.93,73.3c-40.34,20.3-65.29,53.8-74.8,98.29c-0.35,1.62-0.04,3.37-0.04,5.06
		C29.81,176.85,30.52,177.04,31.24,177.24z"/>
	<path d="M365.44,185.41c-2.58,0-5.18-0.15-7.75,0.02c-19.86,1.35-39.7,2.92-59.57,4.11c-29.04,1.74-58.09,4.03-87.16,4.6
		c-30.94,0.6-61.91-0.34-92.86-0.98c-16.23-0.34-32.45-1.29-48.66-2.33c-8.85-0.57-17.64-1.92-26.47-2.86
		c-9.01-0.96-18.02-1.86-28.96-2.98c5.42,6.88,11.53,8.07,17.24,9.59c28.01,7.47,56.83,9.18,85.53,10.68
		c26.89,1.41,53.9,0.77,80.85,0.94c38.04,0.24,75.98-1.83,113.76-6.19c14.56-1.68,28.99-4.7,43.39-7.56
		c3.91-0.78,7.49-3.23,11.22-4.91C365.81,186.83,365.63,186.12,365.44,185.41z"/>
	<path d="M212.15,51.52c-4.21-11.8-13.51-17.66-23.89-16.5c-11.34,1.27-18.18,6.87-18.92,16.23
		C183.16,40.53,196.97,40.29,212.15,51.52z"/>
	<path d="M199.55,32.36c-0.84-4.48-1.32-7.99-2.2-11.4c-0.85-3.29-3.21-5.05-6.68-5.17c-3.42-0.11-6.12,1.46-7.3,4.48
		c-1.48,3.79-3.62,7.75-1.21,12.09C187.56,32.36,192.67,32.36,199.55,32.36z"/>
</g>
</svg>
